<?xml version="1.0" encoding="UTF-8"?>
<svg xmlns="http://www.w3.org/2000/svg" xmlns:xlink="http://www.w3.org/1999/xlink" width="25px" height="25px" viewBox="0 0 25 25" version="1.1">
<g id="surface1">
<path style=" stroke:none;fill-rule:nonzero;fill:rgb(0%,0%,0%);fill-opacity:1;" d="M 6.828125 3.953125 C 3.367188 5.6875 1.253906 6.773438 1.21875 6.832031 C 1.152344 6.960938 1.152344 18.039062 1.21875 18.167969 C 1.28125 18.277344 12.34375 23.828125 12.5 23.828125 C 12.65625 23.828125 23.71875 18.277344 23.78125 18.167969 C 23.847656 18.039062 23.847656 6.960938 23.78125 6.832031 C 23.714844 6.714844 12.652344 1.171875 12.492188 1.175781 C 12.425781 1.175781 9.878906 2.425781 6.828125 3.953125 Z M 13.84375 2.671875 C 14.578125 3.042969 15.1875 3.355469 15.1875 3.367188 C 15.1875 3.382812 14.761719 3.617188 14.242188 3.886719 C 13.128906 4.476562 9.136719 6.59375 6.996094 7.734375 L 5.46875 8.546875 L 3.980469 7.804688 C 3.160156 7.390625 2.492188 7.046875 2.492188 7.03125 C 2.492188 7.011719 12.421875 2.023438 12.484375 2.007812 C 12.496094 2 13.105469 2.304688 13.84375 2.671875 Z M 17.210938 4.355469 C 17.816406 4.65625 18.3125 4.917969 18.3125 4.929688 C 18.3125 4.945312 17.789062 5.230469 17.148438 5.566406 C 16.515625 5.902344 15.71875 6.324219 15.382812 6.5 C 15.042969 6.675781 14.078125 7.1875 13.234375 7.640625 C 12.386719 8.089844 10.996094 8.828125 10.148438 9.28125 L 8.59375 10.109375 L 7.464844 9.539062 L 6.332031 8.976562 L 6.671875 8.792969 C 6.855469 8.691406 7.921875 8.125 9.03125 7.535156 C 13.867188 4.964844 15.09375 4.316406 15.550781 4.070312 C 15.820312 3.925781 16.054688 3.808594 16.074219 3.808594 C 16.097656 3.808594 16.605469 4.058594 17.210938 4.355469 Z M 20.875 6.1875 C 21.773438 6.640625 22.507812 7.015625 22.507812 7.03125 C 22.507812 7.046875 20.257812 8.183594 17.503906 9.5625 L 12.5 12.0625 L 10.980469 11.296875 C 10.148438 10.882812 9.46875 10.53125 9.476562 10.527344 C 9.496094 10.507812 10.199219 10.136719 15.039062 7.570312 C 16.828125 6.617188 18.484375 5.738281 18.726562 5.605469 C 18.96875 5.476562 19.179688 5.371094 19.199219 5.371094 C 19.222656 5.371094 19.976562 5.738281 20.875 6.1875 Z M 5.078125 11.328125 L 5.078125 13.433594 L 5.199219 13.550781 C 5.316406 13.667969 5.335938 13.671875 6.089844 13.671875 L 6.855469 13.671875 L 7.640625 14.453125 C 8.335938 15.136719 8.445312 15.234375 8.589844 15.234375 C 8.691406 15.234375 8.789062 15.191406 8.863281 15.113281 L 8.984375 14.996094 L 8.984375 11.179688 L 12.109375 12.742188 L 12.109375 22.804688 L 1.953125 17.726562 L 1.953125 7.664062 L 5.078125 9.226562 Z M 23.046875 12.695312 L 23.046875 17.726562 L 12.890625 22.804688 L 12.890625 12.742188 L 17.960938 10.210938 C 20.742188 8.8125 23.027344 7.671875 23.039062 7.671875 C 23.042969 7.664062 23.046875 9.925781 23.046875 12.695312 Z M 8.203125 12.339844 L 8.203125 13.886719 L 7.695312 13.390625 L 7.191406 12.890625 L 5.859375 12.890625 L 5.859375 9.617188 L 8.203125 10.789062 Z M 8.203125 12.339844 "/>
</g>
</svg>
