<?xml version="1.0" encoding="UTF-8"?>
<svg xmlns="http://www.w3.org/2000/svg" xmlns:xlink="http://www.w3.org/1999/xlink" width="25px" height="25px" viewBox="0 0 25 25" version="1.1">
<g id="surface1">
<path style=" stroke:none;fill-rule:nonzero;fill:rgb(0%,0%,0%);fill-opacity:1;" d="M 5.410156 2.25 C 4.9375 2.324219 4.5 2.664062 4.316406 3.109375 C 4.242188 3.273438 3.953125 4.875 3.261719 8.871094 L 3.0625 10.058594 L 2.105469 10.058594 C 1.3125 10.058594 1.101562 10.074219 0.90625 10.140625 C 0.570312 10.265625 0.238281 10.601562 0.101562 10.957031 L 0 11.242188 L 0.0078125 16.492188 L 0.0234375 21.753906 L 0.15625 22 C 0.308594 22.289062 0.566406 22.53125 0.875 22.675781 L 1.097656 22.777344 L 19.996094 22.777344 L 20.273438 22.640625 C 20.585938 22.484375 20.816406 22.25 20.96875 21.929688 C 21.0625 21.714844 21.070312 21.617188 21.085938 19.796875 L 21.097656 17.886719 L 21.304688 17.925781 C 21.414062 17.945312 21.675781 17.964844 21.878906 17.96875 C 22.335938 17.96875 22.65625 17.828125 22.945312 17.496094 C 23.195312 17.210938 23.25 17.027344 23.460938 15.835938 C 23.636719 14.804688 23.910156 13.257812 24.070312 12.328125 C 24.917969 7.496094 25.007812 6.945312 24.980469 6.726562 C 24.925781 6.246094 24.613281 5.78125 24.210938 5.582031 C 23.960938 5.453125 24.515625 5.554688 12.890625 3.484375 C 4.902344 2.066406 5.722656 2.203125 5.410156 2.25 Z M 6.683594 3.199219 C 7.210938 3.289062 8.070312 3.445312 8.59375 3.539062 C 9.117188 3.632812 12.75 4.28125 16.664062 4.980469 C 20.582031 5.679688 23.828125 6.273438 23.882812 6.304688 C 24.039062 6.386719 24.171875 6.644531 24.171875 6.875 C 24.171875 7.035156 23.941406 8.539062 23.90625 8.578125 C 23.902344 8.585938 23.671875 8.546875 23.390625 8.492188 C 23.105469 8.441406 22.128906 8.265625 21.214844 8.105469 C 20.304688 7.9375 18.949219 7.699219 18.210938 7.570312 C 17.476562 7.4375 14.640625 6.929688 11.914062 6.445312 C 5.6875 5.335938 4.765625 5.171875 4.746094 5.152344 C 4.707031 5.117188 5.039062 3.4375 5.101562 3.335938 C 5.203125 3.183594 5.460938 3.027344 5.609375 3.027344 C 5.671875 3.027344 6.15625 3.105469 6.683594 3.199219 Z M 6.347656 6.273438 C 7.191406 6.425781 8.554688 6.664062 9.375 6.8125 C 10.195312 6.957031 13.765625 7.59375 17.304688 8.226562 C 20.851562 8.859375 23.75 9.378906 23.757812 9.382812 C 23.765625 9.394531 23.71875 9.6875 23.65625 10.035156 C 23.59375 10.386719 23.429688 11.320312 23.289062 12.109375 C 23.15625 12.898438 23.003906 13.78125 22.949219 14.0625 C 22.898438 14.34375 22.777344 15.046875 22.675781 15.625 C 22.578125 16.203125 22.46875 16.742188 22.4375 16.832031 C 22.3125 17.125 22.070312 17.191406 21.425781 17.117188 L 21.09375 17.078125 L 21.09375 14.1875 C 21.09375 10.980469 21.09375 11 20.777344 10.582031 C 20.664062 10.433594 20.507812 10.3125 20.308594 10.210938 L 20.003906 10.058594 L 11.953125 10.058594 C 4.1875 10.058594 3.90625 10.054688 3.90625 9.96875 C 3.90625 9.890625 4.496094 6.4375 4.570312 6.09375 C 4.589844 5.984375 4.617188 5.960938 4.703125 5.980469 C 4.761719 5.992188 5.503906 6.125 6.347656 6.273438 Z M 19.890625 10.90625 C 19.980469 10.941406 20.097656 11.035156 20.15625 11.109375 L 20.265625 11.246094 L 20.265625 16.390625 C 20.265625 21.15625 20.257812 21.554688 20.179688 21.683594 C 19.996094 21.992188 20.695312 21.972656 10.550781 21.972656 C 2.679688 21.972656 1.289062 21.960938 1.148438 21.90625 C 0.8125 21.761719 0.828125 22.101562 0.828125 16.390625 L 0.828125 11.246094 L 0.9375 11.109375 C 1.15625 10.824219 0.570312 10.84375 10.539062 10.839844 C 18.242188 10.839844 19.757812 10.851562 19.890625 10.90625 Z M 19.890625 10.90625 "/>
<path style=" stroke:none;fill-rule:nonzero;fill:rgb(0%,0%,0%);fill-opacity:1;" d="M 2.910156 15.148438 C 2.636719 15.21875 2.324219 15.546875 2.257812 15.828125 C 2.222656 15.957031 2.195312 16.351562 2.195312 16.714844 C 2.195312 17.460938 2.257812 17.703125 2.5 17.953125 C 2.792969 18.257812 2.859375 18.265625 4.769531 18.25 L 6.484375 18.238281 L 6.699219 18.089844 C 6.8125 18.007812 6.957031 17.851562 7.015625 17.75 C 7.117188 17.570312 7.128906 17.496094 7.128906 16.710938 C 7.128906 16.113281 7.109375 15.820312 7.066406 15.707031 C 6.972656 15.492188 6.640625 15.203125 6.410156 15.140625 C 6.167969 15.074219 3.167969 15.078125 2.910156 15.148438 Z M 6.289062 15.976562 C 6.328125 16.015625 6.347656 16.246094 6.347656 16.679688 C 6.347656 17.296875 6.34375 17.335938 6.242188 17.402344 C 6.148438 17.46875 5.90625 17.480469 4.640625 17.480469 C 3.539062 17.480469 3.128906 17.464844 3.085938 17.421875 C 3.003906 17.339844 3.003906 16.058594 3.085938 15.976562 C 3.167969 15.894531 6.207031 15.894531 6.289062 15.976562 Z M 6.289062 15.976562 "/>
<path style=" stroke:none;fill-rule:nonzero;fill:rgb(0%,0%,0%);fill-opacity:1;" d="M 2.5 19.691406 C 2.34375 19.859375 2.351562 20.125 2.519531 20.257812 C 2.640625 20.355469 2.710938 20.359375 3.925781 20.359375 C 5.308594 20.359375 5.371094 20.351562 5.46875 20.085938 C 5.523438 19.945312 5.445312 19.691406 5.320312 19.628906 C 5.269531 19.601562 4.683594 19.578125 3.914062 19.578125 C 2.609375 19.578125 2.601562 19.578125 2.5 19.691406 Z M 2.5 19.691406 "/>
<path style=" stroke:none;fill-rule:nonzero;fill:rgb(0%,0%,0%);fill-opacity:1;" d="M 6.890625 19.707031 C 6.753906 19.882812 6.757812 20.09375 6.910156 20.238281 L 7.027344 20.359375 L 9.628906 20.359375 L 9.773438 20.214844 C 9.898438 20.085938 9.917969 20.039062 9.890625 19.90625 C 9.828125 19.585938 9.804688 19.578125 8.324219 19.578125 L 6.988281 19.578125 Z M 6.890625 19.707031 "/>
<path style=" stroke:none;fill-rule:nonzero;fill:rgb(0%,0%,0%);fill-opacity:1;" d="M 11.285156 19.707031 C 11.226562 19.78125 11.179688 19.878906 11.179688 19.929688 C 11.179688 20.0625 11.308594 20.292969 11.402344 20.332031 C 11.445312 20.347656 12.066406 20.359375 12.773438 20.359375 L 14.066406 20.359375 L 14.183594 20.238281 C 14.335938 20.09375 14.339844 19.882812 14.203125 19.707031 L 14.105469 19.578125 L 11.382812 19.578125 Z M 11.285156 19.707031 "/>
<path style=" stroke:none;fill-rule:nonzero;fill:rgb(0%,0%,0%);fill-opacity:1;" d="M 15.726562 19.664062 C 15.671875 19.710938 15.609375 19.820312 15.59375 19.90625 C 15.570312 20.039062 15.589844 20.085938 15.710938 20.214844 L 15.859375 20.359375 L 18.460938 20.359375 L 18.578125 20.238281 C 18.742188 20.082031 18.746094 19.835938 18.589844 19.6875 C 18.476562 19.585938 18.441406 19.578125 17.152344 19.578125 C 15.96875 19.578125 15.820312 19.589844 15.726562 19.664062 Z M 15.726562 19.664062 "/>
</g>
</svg>
